<svg width="20" height="22" viewBox="0 0 20 22" fill="none" xmlns="http://www.w3.org/2000/svg">
<g clip-path="url(#clip0_3363_4344)">
<path d="M15.37 5.5H19.495V18.5625C19.495 19.5078 19.1584 20.3171 18.4852 20.9902C17.8121 21.6634 17.0028 22 16.0575 22H3.6825C2.73718 22 1.92794 21.6634 1.25476 20.9902C0.581584 20.3171 0.244995 19.5078 0.244995 18.5625V5.5H4.37C4.37 4.74088 4.51322 4.02474 4.79968 3.35156C5.08614 2.69271 5.48002 2.11263 5.98132 1.61133C6.48263 1.11003 7.0627 0.716146 7.72156 0.429688C8.39473 0.143229 9.11088 0 9.87 0C10.6291 0 11.3453 0.143229 12.0184 0.429688C12.6773 0.716146 13.2574 1.11003 13.7587 1.61133C14.26 2.11263 14.6538 2.69271 14.9403 3.35156C15.2268 4.02474 15.37 4.74088 15.37 5.5ZM9.87 1.375C8.73848 1.375 7.76811 1.77962 6.95886 2.58887C6.14962 3.39811 5.745 4.36849 5.745 5.5H13.995C13.995 4.36849 13.5904 3.39811 12.7811 2.58887C11.9719 1.77962 11.0015 1.375 9.87 1.375ZM18.12 18.5625V6.875H15.37V8.9375C15.37 9.1237 15.302 9.28483 15.1659 9.4209C15.0298 9.55697 14.8687 9.625 14.6825 9.625C14.4963 9.625 14.3352 9.55697 14.1991 9.4209C14.063 9.28483 13.995 9.1237 13.995 8.9375V6.875H5.745V8.9375C5.745 9.1237 5.67696 9.28483 5.54089 9.4209C5.40483 9.55697 5.24369 9.625 5.0575 9.625C4.8713 9.625 4.71016 9.55697 4.5741 9.4209C4.43803 9.28483 4.37 9.1237 4.37 8.9375V6.875H1.62V18.5625C1.62 19.1354 1.82052 19.6224 2.22156 20.0234C2.6226 20.4245 3.10958 20.625 3.6825 20.625H16.0575C16.6304 20.625 17.1174 20.4245 17.5184 20.0234C17.9195 19.6224 18.12 19.1354 18.12 18.5625Z" fill="white"/>
</g>
<defs>
<clipPath id="clip0_3363_4344">
<rect width="19.58" height="22" fill="white" transform="matrix(1 0 0 -1 0.23999 22)"/>
</clipPath>
</defs>
</svg>
