<svg width="59" height="24" viewBox="0 0 59 24" fill="none" xmlns="http://www.w3.org/2000/svg">
<g clip-path="url(#clip0_2555_4914)">
<path fill-rule="evenodd" clip-rule="evenodd" d="M27.8748 3.72011V9.48435H31.4296C32.2766 9.48435 32.9769 9.19917 33.5303 8.63023C34.0992 8.0627 34.3844 7.38505 34.3844 6.60152C34.3844 5.83352 34.0992 5.16435 33.5303 4.59399C32.9769 4.01094 32.2766 3.7187 31.4296 3.7187L27.8748 3.72011ZM27.8748 11.5131V18.1992H25.7515V1.69141H31.3844C32.8145 1.69141 34.0286 2.16717 35.0296 3.12011C36.0461 4.07305 36.5543 5.23352 36.5543 6.60152C36.5543 8.00058 36.0461 9.16952 35.0296 10.1055C34.0456 11.0443 32.8286 11.5116 31.383 11.5116L27.8748 11.5131ZM38.7002 14.7418C38.7002 15.2952 38.9345 15.7554 39.4046 16.1253C39.8733 16.4923 40.4239 16.6773 41.0536 16.6773C41.9472 16.6773 42.7421 16.3469 43.4423 15.6876C44.1439 15.0255 44.4926 14.2491 44.4926 13.3582C43.8305 12.8359 42.9072 12.5747 41.7228 12.5747C40.8616 12.5747 40.1416 12.7836 39.5656 13.1987C38.9882 13.6138 38.7002 14.1262 38.7002 14.7418ZM41.4475 6.53235C43.0173 6.53235 44.2555 6.95164 45.1646 7.78882C46.071 8.62741 46.5256 9.77658 46.5256 11.2363V18.1992H44.4941V16.6321H44.4023C43.5242 17.9225 42.3552 18.5691 40.8926 18.5691C39.6475 18.5691 38.6042 18.1992 37.7656 17.4622C36.927 16.7239 36.5077 15.802 36.5077 14.6952C36.5077 13.5262 36.9496 12.5973 37.8348 11.9055C38.7199 11.2138 39.9002 10.8679 41.3783 10.8679C42.6376 10.8679 43.6781 11.098 44.4926 11.5596V11.074C44.4926 10.3371 44.2004 9.71023 43.6159 9.19635C43.0528 8.68961 42.3193 8.41385 41.5618 8.42411C40.3759 8.42411 39.4385 8.92246 38.7453 9.92341L36.8762 8.746C37.9068 7.2707 39.4315 6.53235 41.4475 6.53235ZM58.1811 6.90223L51.0941 23.1799H48.9016L51.5331 17.4848L46.8715 6.90223H49.1797L52.5496 15.0185H52.5948L55.8729 6.90082L58.1811 6.90223Z" fill="white"/>
<path fill-rule="evenodd" clip-rule="evenodd" d="M19.2943 10.071C19.2943 9.40328 19.2378 8.75811 19.1306 8.14258H10.1743V11.7962H15.3047C15.1995 12.38 14.9772 12.9364 14.6511 13.4319C14.325 13.9274 13.9019 14.3516 13.4073 14.679V17.0508H16.4694C18.2623 15.399 19.2943 12.9567 19.2943 10.071Z" fill="#4285F4"/>
<path fill-rule="evenodd" clip-rule="evenodd" d="M10.1742 19.34C12.7379 19.34 14.8951 18.5 16.4692 17.0516L13.4071 14.6784C12.5558 15.2516 11.4589 15.5862 10.1742 15.5862C7.69792 15.5862 5.59439 13.9175 4.84334 11.6699H1.68945V14.1137C2.48065 15.6855 3.69294 17.0066 5.19111 17.9297C6.68929 18.8528 8.41444 19.3416 10.1742 19.3415" fill="#34A853"/>
<path fill-rule="evenodd" clip-rule="evenodd" d="M4.84337 11.6705C4.44718 10.4926 4.44718 9.2174 4.84337 8.03947V5.5957H1.68948C1.02275 6.91595 0.675998 8.37454 0.677249 9.85359C0.677249 11.3854 1.04431 12.8324 1.68948 14.1129L4.84337 11.6691V11.6705Z" fill="#FABB05"/>
<path fill-rule="evenodd" clip-rule="evenodd" d="M10.1742 4.12302C11.5747 4.12302 12.8283 4.60302 13.8166 5.54608V5.54749L16.5272 2.83973C14.8839 1.30938 12.738 0.369141 10.1756 0.369141C8.41605 0.368906 6.691 0.857442 5.19284 1.78027C3.69468 2.70309 2.48231 4.02394 1.69092 5.59549L4.8448 8.03926C5.59586 5.79173 7.69798 4.12302 10.1742 4.12302Z" fill="#E94235"/>
</g>
<defs>
<clipPath id="clip0_2555_4914">
<rect width="57.8824" height="24" fill="white" transform="translate(0.308594)"/>
</clipPath>
</defs>
</svg>
