<svg width="23" height="22" viewBox="0 0 23 22" fill="none" xmlns="http://www.w3.org/2000/svg">
<g clip-path="url(#clip0_3061_3905)">
<path d="M20.2027 2.68555C20.8759 3.27279 21.3844 3.94596 21.7281 4.70508C22.0862 5.47852 22.2831 6.27344 22.319 7.08984C22.3548 7.90625 22.2294 8.70833 21.943 9.49609C21.6565 10.2839 21.2125 10.9928 20.6109 11.623L12.2965 20.2168C12.1676 20.3457 12.0172 20.446 11.8453 20.5176C11.6734 20.5892 11.5016 20.625 11.3297 20.625C11.1578 20.625 10.9859 20.5892 10.8141 20.5176C10.6422 20.446 10.4918 20.3457 10.3629 20.2168L2.04845 11.623C1.43256 11.0072 0.988553 10.2982 0.716417 9.49609C0.429959 8.70833 0.304633 7.90625 0.340441 7.08984C0.376248 6.27344 0.573188 5.47852 0.931261 4.70508C1.27501 3.94596 1.78347 3.27279 2.45665 2.68555C3.14415 2.11263 3.86746 1.73307 4.62657 1.54688C5.38569 1.375 6.12332 1.3392 6.83946 1.43946C7.55561 1.53971 8.23595 1.76172 8.88048 2.10547C9.51069 2.4349 10.0478 2.82878 10.4918 3.28711L11.3297 4.14649L12.1676 3.26563C12.7119 2.70703 13.3277 2.27018 14.0152 1.95508C14.7027 1.63998 15.4046 1.45378 16.1207 1.39649C16.8369 1.3392 17.553 1.41797 18.2692 1.63281C18.971 1.84766 19.6155 2.19857 20.2027 2.68555ZM19.6227 10.6777C20.038 10.248 20.3675 9.73958 20.6109 9.15234C20.8401 8.56511 20.9547 7.9528 20.9547 7.31543C20.9547 6.67806 20.8258 6.04427 20.568 5.41406C20.3102 4.79818 19.8876 4.23958 19.3004 3.73828C18.7132 3.23698 18.1116 2.9362 17.4957 2.83594C16.8798 2.72136 16.2926 2.72494 15.734 2.84668C15.1754 2.96843 14.6669 3.16537 14.2086 3.4375C13.7646 3.70964 13.4137 3.97461 13.1559 4.23242L11.3297 6.12305L9.50353 4.23242C9.24571 3.97461 8.88764 3.70964 8.42931 3.4375C7.9853 3.16537 7.48399 2.96843 6.9254 2.84668C6.36681 2.72494 5.77957 2.71419 5.16368 2.81446C4.5478 2.92904 3.94623 3.23698 3.35899 3.73828C2.77176 4.23958 2.34923 4.79818 2.09142 5.41406C1.8336 6.04427 1.7047 6.67806 1.7047 7.31543C1.7047 7.9528 1.81928 8.56511 2.04845 9.15234C2.29194 9.73958 2.62137 10.248 3.03673 10.6777L11.3512 19.25L19.6227 10.6777Z" fill="white"/>
</g>
<defs>
<clipPath id="clip0_3061_3905">
<rect width="22.33" height="22" fill="white" transform="matrix(1 0 0 -1 0.330078 22)"/>
</clipPath>
</defs>
</svg>
