<?xml version="1.0" encoding="utf-8"?>
<!-- Generator: Adobe Illustrator 28.2.0, SVG Export Plug-In . SVG Version: 6.00 Build 0)  -->
<svg version="1.1" id="Layer_1" xmlns="http://www.w3.org/2000/svg" xmlns:xlink="http://www.w3.org/1999/xlink" x="0px" y="0px"
	 viewBox="0 0 71 59.5" style="enable-background:new 0 0 71 59.5;" xml:space="preserve">
<style type="text/css">
	.st0{fill:#FFFFFF;}
	.st1{fill-rule:evenodd;clip-rule:evenodd;fill:#FFFFFF;}
</style>
<path class="st0" d="M0,23.7l0-0.3c2.1,0.1,3.6,0.2,5.3,0.2c1.5,0,3-0.1,5.1-0.2v0.3c-1.1,0.4-1.7,0.9-1.8,1.3
	c-0.1,0.4-0.2,0.8-0.2,1c0,0.5,0.1,1.1,0.4,1.9c1,2.4,2,4.6,2.9,6.7c1.6,3.6,3.2,7.6,4,9.3c1.9-3.2,4.3-6.1,6.7-8.7
	c-1.1-2.5-2.3-5.5-3.3-7.8C17.9,24.8,17,24,16,23.7v-0.3c2.1,0.1,3.6,0.2,5.2,0.2c1.5,0,3-0.1,5-0.2c0.4,0,0.8,0,1.1,0
	c2.1,0,3.1,0.5,3.1,1.6c0,0.1,0,0.4-0.1,0.8c0,0.4-0.4,1.1-1.1,2.1c-0.8,1-1.7,2.2-2.8,3.5c2,4.7,2.3,5.3,5.2,12.1
	c0.7-1.7,1.4-3.4,2.1-5.2c1.2-3,2.7-6.8,4-10c0.3-0.7,0.4-1.3,0.4-1.9c0-0.5-0.2-1-0.5-1.5c-0.4-0.5-1.4-0.9-3.2-1.1v-0.3
	c1.3,0.1,2.4,0.2,3.4,0.2c1.3,0,2.5,0,3.8-0.2v0.3c-1.5,0.9-2.5,2.2-3.3,4.1c-1.8,4.3-3.9,9.9-5.7,14.5l-3.2,8h-0.3
	c-0.2-0.6-3.2-7.2-6.3-14.7c-3.8,4.4-7.8,9.5-9.3,14.7h-0.3c-0.3-0.8-5.7-13.3-9.8-22.9C1.9,24.8,1.1,24,0,23.7z M24.5,25.2
	c-0.1,0.2-0.1,0.5-0.1,0.8c0,0.3,0,1,0.4,2c0.5,1.1,0.9,2.1,1.3,3c2.2-2.5,3.6-4.5,3.8-5.7c0-0.1,0-0.2,0-0.2c0-1.2-1.8-1.3-3.4-1.1
	C25.3,24,24.7,24.4,24.5,25.2z"/>
<path class="st0" d="M58.1,47.8c0,1.4-1.1,2.5-2.5,2.5c-1.4,0-2.5-1.1-2.5-2.5c0-1.4,1.1-2.5,2.5-2.5C57,45.3,58.1,46.4,58.1,47.8z"
	/>
<path class="st1" d="M31.2,34.9c0.5-0.1,0.9-0.3,1.4-0.4c-0.4,0.2-0.7,0.5-1,0.7c0.6-0.1,1.2-0.2,1.7-0.2c1.5,0,2.7,0.4,3.7,1
	c2.2,1.3,3.6,3.8,5,6.4c1.6,2.9,3.2,5.9,6,7.5v0.4c-0.8,0-1.5,0-2,0h-1.5c-0.4,0-0.8,0-1.3,0h0c-0.6,0-1.3,0-2.2,0
	c-0.8-1.4-1.7-3.5-2.6-5.7l0,0c-1.7-4-3.5-8.3-5.4-8.9c-0.3-0.1-0.6-0.2-0.9-0.2c-0.6,0-1.1,0.2-1.6,0.7c-0.6,0.6-1.1,1.3-1.5,2
	v-0.8C29.5,36.4,30.3,35.6,31.2,34.9z"/>
<path class="st0" d="M36.3,7.1l-2-2.4l-0.4,0.1l-0.2-0.4L35,3.9l0.2,0.4l-0.4,0.2L36,5.9l0.3,0.3l0,0l0-0.4L36,3.5l0.5-0.2L38,5
	l0.3,0.4l0,0l-0.1-0.5l-0.2-1.8l-0.4,0.1l-0.2-0.4l1.3-0.5L39,2.7l-0.3,0.2L39,6l-0.6,0.2L37,4.6l-0.4-0.4l0,0l0.1,0.6l0.1,2.2
	L36.3,7.1z"/>
<path class="st0" d="M44.5,5l0-0.4L45,4.5L45,2l-0.5-0.1l0-0.4l1.2,0l0,3l0.5,0.1l0,0.4L44.5,5z M44.9,0.7l0-0.7l0.7,0l0,0.7
	L44.9,0.7z"/>
<path class="st0" d="M51.3,5.8l0.2-0.4L52,5.5l0.9-2.3l-0.4-0.3l0.2-0.4l1,0.4l-0.2,0.5c0.2-0.1,0.4-0.2,0.6-0.2
	c0.2,0,0.4,0,0.6,0.1C55,3.5,55.2,3.7,55.3,4c0.1,0.3,0.1,0.6-0.1,1.1l-0.6,1.6L55,6.9l-0.2,0.4l-1.6-0.6l0.2-0.4L54,6.3l0.6-1.6
	c0.1-0.3,0.1-0.5,0.1-0.7c-0.1-0.2-0.2-0.3-0.4-0.4c-0.2-0.1-0.3-0.1-0.5-0.1c-0.2,0-0.3,0.1-0.4,0.2l-0.8,1.9L53,6l-0.2,0.4
	L51.3,5.8z"/>
<path class="st0" d="M58.1,11.2c0,0-0.1-0.1-0.1-0.1c0-0.1-0.1-0.1-0.1-0.2l0.4-0.3c0,0,0.1,0.1,0.1,0.1c0,0,0.1,0.1,0.1,0.1
	c0.1,0.1,0.2,0.1,0.3,0.1c0.1,0,0.3-0.1,0.5-0.1l0.4-0.2l1.2-3l-0.2-0.3l0.3-0.3l1,1l-0.3,0.3l-0.3-0.2l-0.7,1.7l-0.2,0.4l0,0l2.1-1
	L62.2,9l0.3-0.3l1,1L63.2,10l-0.3-0.2l-3.5,1.6c-0.2,0.1-0.3,0.1-0.5,0.2c-0.2,0-0.3,0-0.5,0C58.3,11.4,58.2,11.3,58.1,11.2z"/>
<path class="st0" d="M63.5,15.8l0.4-0.2l0.3,0.4l3.7-1.6L67.7,14l0.4-0.2l0.4,1.1l-4.2,1.8l0.1,0.5l-0.4,0.2L63.5,15.8z M64.3,17.9
	l0.4-0.2l0.2,0.3l0,0l0.8-1.4l0.6,0.1l-1.1,2l0.1,0.5l-0.4,0.2L64.3,17.9z M64.8,16.5l0.4-0.4l2,0.8l0,0l-0.1-0.4l0.4-0.2l0.6,1.4
	l-0.4,0.2l-0.2-0.4L64.8,16.5z"/>
<path class="st0" d="M65.7,23.3l0.4,0l0.1,0.5l4,0l0.1-0.5l0.4,0l0,1.2l-2,0c0.2,0.1,0.3,0.3,0.4,0.4c0.1,0.2,0.1,0.4,0.1,0.6
	c0,0.4-0.1,0.7-0.3,0.9c-0.2,0.2-0.6,0.3-1,0.3l-1.7,0l-0.1,0.5l-0.4,0l0-1.7l0.4,0l0.1,0.5l1.7,0c0.3,0,0.5-0.1,0.6-0.2
	c0.1-0.1,0.2-0.3,0.2-0.5c0-0.2,0-0.3-0.1-0.5c-0.1-0.1-0.2-0.3-0.3-0.3l-2.1,0l-0.1,0.5l-0.4,0L65.7,23.3z"/>
<path class="st0" d="M64.6,32.2l0.4,0.2l-0.1,0.5l2.3,0.9l0.3-0.4l0.4,0.2l-0.4,1.1l-2.8-1.1l-0.3,0.4l-0.4-0.2L64.6,32.2z
	 M68.4,34.3l0.6,0.3l-0.2,0.6l-0.6-0.3L68.4,34.3z"/>
<path class="st0" d="M61.2,38.3l0.3,0.3L61.2,39l1.8,1.7l0.4-0.3l0.3,0.3l-0.8,0.8l-0.4-0.3c0,0.2,0,0.4,0,0.6
	c-0.1,0.2-0.2,0.4-0.3,0.5c-0.3,0.3-0.5,0.4-0.8,0.4c-0.3,0-0.6-0.2-0.9-0.5L59.2,41l-0.4,0.3L58.5,41l1.2-1.2l0.3,0.3l-0.3,0.4
	l1.2,1.2c0.2,0.2,0.4,0.3,0.6,0.3c0.2,0,0.3-0.1,0.5-0.3c0.1-0.1,0.2-0.3,0.2-0.4c0-0.2,0-0.3,0-0.5l-1.4-1.4l-0.4,0.3l-0.3-0.3
	L61.2,38.3z"/>
<g>
	<path class="st0" d="M7.8,59.3C7.8,59.3,7.8,59.3,7.8,59.3c0,0.1,0,0.1,0,0.2c0,0,0,0,0,0c0,0,0,0-0.1,0H5.6c0,0-0.1,0-0.1,0
		c0,0-0.1-0.1-0.1-0.2v-4.5c0,0,0,0,0,0c0,0,0,0,0,0c0,0,0,0,0.1,0c0,0,0.1,0,0.1,0c0,0,0.1,0,0.1,0c0,0,0.1,0,0.1,0c0,0,0,0,0,0
		c0,0,0,0,0,0v4.3h1.8c0,0,0,0,0.1,0c0,0,0,0,0,0C7.8,59.1,7.8,59.2,7.8,59.3C7.8,59.2,7.8,59.2,7.8,59.3z"/>
	<path class="st0" d="M12,59.3C12,59.4,12,59.4,12,59.3c0,0.1,0,0.1,0,0.1c0,0,0,0-0.1,0c0,0-0.1,0-0.1,0c-0.1,0-0.1,0-0.1,0
		c0,0-0.1,0-0.1,0c0,0,0,0,0,0c0,0,0,0,0,0l-0.5-1.3H9l-0.4,1.3c0,0,0,0,0,0s0,0,0,0c0,0,0,0-0.1,0c0,0-0.1,0-0.1,0
		c-0.1,0-0.1,0-0.1,0s-0.1,0-0.1,0c0,0,0,0,0-0.1c0,0,0-0.1,0-0.1l1.7-4.6c0,0,0,0,0,0c0,0,0,0,0.1,0c0,0,0.1,0,0.1,0
		c0,0,0.1,0,0.1,0c0,0,0.1,0,0.1,0c0,0,0.1,0,0.1,0c0,0,0,0,0.1,0c0,0,0,0,0,0L12,59.3z M10,55.2L10,55.2l-0.9,2.6H11L10,55.2z"/>
	<path class="st0" d="M16.4,57c0,0.4-0.1,0.8-0.2,1.1s-0.3,0.6-0.4,0.8s-0.4,0.4-0.7,0.5c-0.3,0.1-0.6,0.2-1,0.2h-0.9
		c0,0-0.1,0-0.1,0c0,0-0.1-0.1-0.1-0.2v-4.3c0-0.1,0-0.2,0.1-0.2c0,0,0.1,0,0.1,0h1c0.4,0,0.8,0.1,1,0.2s0.5,0.3,0.7,0.5
		c0.2,0.2,0.3,0.5,0.4,0.7S16.4,56.7,16.4,57z M15.9,57c0-0.3,0-0.5-0.1-0.8c-0.1-0.2-0.2-0.4-0.3-0.6c-0.1-0.2-0.3-0.3-0.6-0.4
		c-0.2-0.1-0.5-0.1-0.9-0.1h-0.7v4h0.7c0.3,0,0.6,0,0.8-0.1c0.2-0.1,0.4-0.2,0.6-0.4c0.2-0.2,0.3-0.4,0.3-0.6S15.9,57.4,15.9,57z"/>
	<path class="st0" d="M18.7,57.6v1.8c0,0,0,0,0,0c0,0,0,0,0,0c0,0,0,0-0.1,0s-0.1,0-0.1,0c0,0-0.1,0-0.1,0s-0.1,0-0.1,0c0,0,0,0,0,0
		c0,0,0,0,0,0v-1.8l-1.4-2.8c0,0,0-0.1,0-0.1c0,0,0,0,0-0.1s0,0,0.1,0c0,0,0.1,0,0.1,0c0.1,0,0.1,0,0.1,0c0,0,0.1,0,0.1,0
		c0,0,0,0,0,0c0,0,0,0,0,0l0.7,1.5c0.1,0.1,0.1,0.3,0.2,0.4c0.1,0.2,0.1,0.3,0.2,0.5h0c0.1-0.1,0.1-0.3,0.2-0.4s0.1-0.3,0.2-0.4
		l0.7-1.5c0,0,0,0,0,0c0,0,0,0,0,0c0,0,0,0,0.1,0c0,0,0.1,0,0.1,0c0.1,0,0.1,0,0.1,0c0,0,0.1,0,0.1,0c0,0,0,0,0,0.1s0,0.1,0,0.1
		L18.7,57.6z"/>
	<path class="st0" d="M25.1,54.9C25.1,54.9,25.1,54.9,25.1,54.9c0,0.1,0,0.1,0,0.1c0,0,0,0,0,0c0,0,0,0,0,0h-1.9v1.8h1.8
		c0,0,0,0,0,0c0,0,0,0,0,0c0,0,0,0,0,0.1c0,0,0,0.1,0,0.1c0,0,0,0.1,0,0.1c0,0,0,0,0,0.1c0,0,0,0,0,0c0,0,0,0,0,0h-1.8v2.1
		c0,0,0,0,0,0c0,0,0,0,0,0c0,0,0,0-0.1,0c0,0-0.1,0-0.1,0c0,0-0.1,0-0.1,0s-0.1,0-0.1,0c0,0,0,0,0,0c0,0,0,0,0,0v-4.5
		c0-0.1,0-0.2,0.1-0.2c0,0,0.1,0,0.1,0H25c0,0,0,0,0,0c0,0,0,0,0,0S25.1,54.8,25.1,54.9C25.1,54.8,25.1,54.8,25.1,54.9z"/>
	<path class="st0" d="M29.2,59.4C29.2,59.4,29.2,59.4,29.2,59.4C29.2,59.5,29.2,59.5,29.2,59.4c-0.1,0.1-0.1,0.1-0.1,0.1
		s-0.1,0-0.1,0c0,0-0.1,0-0.1,0c0,0-0.1,0-0.1,0c0,0,0,0,0,0c0,0,0,0,0-0.1l-0.4-1.2c-0.1-0.1-0.1-0.3-0.2-0.4
		c-0.1-0.1-0.1-0.2-0.2-0.3c-0.1-0.1-0.2-0.2-0.3-0.2s-0.3-0.1-0.4-0.1h-0.5v2.2c0,0,0,0,0,0c0,0,0,0,0,0c0,0,0,0-0.1,0
		c0,0-0.1,0-0.1,0c0,0-0.1,0-0.1,0s-0.1,0-0.1,0c0,0,0,0,0,0c0,0,0,0,0,0v-4.5c0-0.1,0-0.2,0.1-0.2c0,0,0.1,0,0.1,0h0.9
		c0.1,0,0.2,0,0.3,0c0.1,0,0.1,0,0.2,0c0.2,0,0.3,0.1,0.5,0.2c0.1,0.1,0.2,0.2,0.3,0.3c0.1,0.1,0.2,0.2,0.2,0.4
		c0,0.1,0.1,0.3,0.1,0.4c0,0.2,0,0.3-0.1,0.4s-0.1,0.2-0.2,0.3c-0.1,0.1-0.2,0.2-0.3,0.2C28.2,57,28.1,57,28,57.1
		c0.1,0,0.2,0.1,0.2,0.1c0.1,0.1,0.1,0.1,0.2,0.2c0.1,0.1,0.1,0.2,0.2,0.3c0,0.1,0.1,0.2,0.1,0.3l0.5,1.1
		C29.2,59.2,29.2,59.3,29.2,59.4C29.2,59.4,29.2,59.4,29.2,59.4z M28.4,56c0-0.2,0-0.4-0.1-0.5c-0.1-0.1-0.2-0.2-0.5-0.3
		c-0.1,0-0.2,0-0.2,0c-0.1,0-0.2,0-0.3,0h-0.6v1.8h0.7c0.2,0,0.3,0,0.5-0.1s0.2-0.1,0.3-0.2s0.2-0.2,0.2-0.3
		C28.4,56.2,28.4,56.1,28.4,56z"/>
	<path class="st0" d="M34,57c0,0.4,0,0.7-0.1,1s-0.2,0.6-0.4,0.8c-0.2,0.2-0.4,0.4-0.7,0.5s-0.6,0.2-0.9,0.2c-0.4,0-0.7-0.1-0.9-0.2
		c-0.3-0.1-0.5-0.3-0.6-0.5c-0.2-0.2-0.3-0.5-0.4-0.8c-0.1-0.3-0.1-0.6-0.1-1c0-0.4,0-0.7,0.1-1c0.1-0.3,0.2-0.6,0.4-0.8
		c0.2-0.2,0.4-0.4,0.7-0.5c0.3-0.1,0.6-0.2,0.9-0.2c0.3,0,0.7,0.1,0.9,0.2c0.3,0.1,0.5,0.3,0.6,0.5c0.2,0.2,0.3,0.5,0.4,0.8
		C34,56.3,34,56.7,34,57z M33.6,57.1c0-0.3,0-0.6-0.1-0.8s-0.1-0.5-0.3-0.7c-0.1-0.2-0.3-0.3-0.5-0.4C32.5,55.1,32.3,55,32,55
		c-0.3,0-0.5,0.1-0.8,0.2c-0.2,0.1-0.4,0.3-0.5,0.4c-0.1,0.2-0.2,0.4-0.3,0.7s-0.1,0.5-0.1,0.8c0,0.3,0,0.6,0.1,0.8
		c0.1,0.3,0.1,0.5,0.3,0.7c0.1,0.2,0.3,0.3,0.5,0.4s0.5,0.2,0.8,0.2c0.3,0,0.6-0.1,0.8-0.2c0.2-0.1,0.4-0.3,0.5-0.5
		c0.1-0.2,0.2-0.4,0.3-0.7C33.5,57.6,33.6,57.3,33.6,57.1z"/>
	<path class="st0" d="M40.2,59.4C40.2,59.4,40.2,59.4,40.2,59.4C40.2,59.5,40.1,59.5,40.2,59.4c-0.1,0.1-0.1,0.1-0.1,0.1
		s-0.1,0-0.1,0c0,0-0.1,0-0.1,0c0,0-0.1,0-0.1,0c0,0,0,0,0,0c0,0,0,0,0,0v-4.3h0l-1.9,4.4c0,0,0,0,0,0s0,0,0,0s0,0-0.1,0
		c0,0-0.1,0-0.1,0c0,0-0.1,0-0.1,0s0,0-0.1,0c0,0,0,0,0,0s0,0,0,0l-1.8-4.4h0v4.3c0,0,0,0,0,0c0,0,0,0,0,0c0,0,0,0-0.1,0
		s-0.1,0-0.1,0c0,0-0.1,0-0.1,0s-0.1,0-0.1,0c0,0,0,0,0,0c0,0,0,0,0,0v-4.5c0-0.1,0-0.2,0.1-0.2c0,0,0.1,0,0.1,0h0.2
		c0.1,0,0.1,0,0.2,0c0,0,0.1,0,0.1,0.1c0,0,0.1,0.1,0.1,0.1s0,0.1,0.1,0.1l1.6,3.8h0l1.7-3.8c0-0.1,0.1-0.1,0.1-0.2
		c0,0,0.1-0.1,0.1-0.1c0,0,0.1,0,0.1-0.1c0,0,0.1,0,0.1,0H40c0,0,0,0,0.1,0c0,0,0,0,0.1,0s0,0,0,0.1c0,0,0,0.1,0,0.1V59.4z"/>
	<path class="st0" d="M46.3,58.1c0,0.1,0,0.3,0,0.4c0,0.1-0.1,0.2-0.1,0.3c-0.1,0.1-0.1,0.2-0.2,0.3c-0.1,0.1-0.2,0.1-0.3,0.2
		c-0.1,0.1-0.2,0.1-0.4,0.1c-0.1,0-0.3,0-0.5,0h-1.2c0,0-0.1,0-0.1,0c0,0-0.1-0.1-0.1-0.2v-4.3c0-0.1,0-0.2,0.1-0.2c0,0,0.1,0,0.1,0
		h1c0.3,0,0.5,0,0.7,0.1c0.2,0.1,0.3,0.1,0.4,0.2c0.1,0.1,0.2,0.2,0.3,0.4c0.1,0.1,0.1,0.3,0.1,0.5c0,0.1,0,0.2,0,0.3
		c0,0.1-0.1,0.2-0.1,0.3c-0.1,0.1-0.1,0.2-0.2,0.2c-0.1,0.1-0.2,0.1-0.3,0.2c0.1,0,0.2,0.1,0.4,0.1s0.2,0.2,0.3,0.3
		c0.1,0.1,0.2,0.2,0.2,0.4S46.3,58,46.3,58.1z M45.5,55.9c0-0.1,0-0.2-0.1-0.3c0-0.1-0.1-0.2-0.2-0.3c-0.1-0.1-0.2-0.1-0.3-0.2
		c-0.1,0-0.3-0.1-0.5-0.1h-0.8v1.7h0.8c0.2,0,0.3,0,0.4-0.1c0.1,0,0.2-0.1,0.3-0.2c0.1-0.1,0.1-0.2,0.2-0.3
		C45.5,56.1,45.5,56,45.5,55.9z M45.8,58.2c0-0.2,0-0.3-0.1-0.4s-0.1-0.2-0.2-0.3s-0.2-0.1-0.4-0.2c-0.1,0-0.3-0.1-0.5-0.1h-0.9v1.9
		h1c0.2,0,0.3,0,0.4-0.1c0.1,0,0.2-0.1,0.3-0.2c0.1-0.1,0.2-0.2,0.2-0.3C45.8,58.5,45.8,58.3,45.8,58.2z"/>
	<path class="st0" d="M50.8,57.7c0,0.3,0,0.6-0.1,0.8c-0.1,0.2-0.2,0.4-0.4,0.6c-0.2,0.2-0.3,0.3-0.6,0.4c-0.2,0.1-0.5,0.1-0.7,0.1
		c-0.2,0-0.5,0-0.7-0.1c-0.2-0.1-0.4-0.2-0.5-0.3c-0.1-0.1-0.3-0.3-0.3-0.6c-0.1-0.2-0.1-0.5-0.1-0.8v-3c0,0,0,0,0,0c0,0,0,0,0,0
		c0,0,0,0,0.1,0c0,0,0.1,0,0.1,0c0,0,0.1,0,0.1,0c0,0,0.1,0,0.1,0c0,0,0,0,0,0s0,0,0,0v2.9c0,0.2,0,0.5,0.1,0.6
		c0.1,0.2,0.1,0.3,0.3,0.5c0.1,0.1,0.2,0.2,0.4,0.3c0.2,0.1,0.3,0.1,0.5,0.1c0.2,0,0.4,0,0.5-0.1c0.2-0.1,0.3-0.1,0.4-0.3
		c0.1-0.1,0.2-0.3,0.3-0.4c0.1-0.2,0.1-0.4,0.1-0.6v-3c0,0,0,0,0,0c0,0,0,0,0,0c0,0,0,0,0.1,0c0,0,0.1,0,0.1,0c0,0,0.1,0,0.1,0
		c0,0,0.1,0,0.1,0c0,0,0,0,0,0c0,0,0,0,0,0V57.7z"/>
	<path class="st0" d="M55.2,59.4C55.2,59.4,55.2,59.4,55.2,59.4C55.2,59.5,55.2,59.5,55.2,59.4c-0.1,0.1-0.1,0.1-0.1,0.1
		c0,0-0.1,0-0.1,0c0,0-0.1,0-0.1,0s-0.1,0-0.1,0c0,0,0,0,0,0c0,0,0,0,0-0.1l-0.4-1.2c-0.1-0.1-0.1-0.3-0.2-0.4
		c-0.1-0.1-0.1-0.2-0.2-0.3c-0.1-0.1-0.2-0.2-0.3-0.2c-0.1,0-0.3-0.1-0.4-0.1h-0.5v2.2c0,0,0,0,0,0c0,0,0,0,0,0c0,0,0,0-0.1,0
		s-0.1,0-0.1,0c0,0-0.1,0-0.1,0c0,0-0.1,0-0.1,0c0,0,0,0,0,0c0,0,0,0,0,0v-4.5c0-0.1,0-0.2,0.1-0.2c0,0,0.1,0,0.1,0h0.9
		c0.1,0,0.2,0,0.3,0c0.1,0,0.1,0,0.2,0c0.2,0,0.3,0.1,0.5,0.2c0.1,0.1,0.2,0.2,0.3,0.3c0.1,0.1,0.2,0.2,0.2,0.4
		c0,0.1,0.1,0.3,0.1,0.4c0,0.2,0,0.3-0.1,0.4s-0.1,0.2-0.2,0.3c-0.1,0.1-0.2,0.2-0.3,0.2S54.1,57,54,57.1c0.1,0,0.2,0.1,0.2,0.1
		c0.1,0.1,0.1,0.1,0.2,0.2c0.1,0.1,0.1,0.2,0.2,0.3c0,0.1,0.1,0.2,0.1,0.3l0.4,1.1C55.2,59.2,55.2,59.3,55.2,59.4
		C55.2,59.4,55.2,59.4,55.2,59.4z M54.4,56c0-0.2,0-0.4-0.1-0.5s-0.2-0.2-0.5-0.3c-0.1,0-0.1,0-0.2,0c-0.1,0-0.2,0-0.3,0h-0.6v1.8
		h0.7c0.2,0,0.3,0,0.5-0.1s0.2-0.1,0.3-0.2s0.2-0.2,0.2-0.3C54.4,56.2,54.4,56.1,54.4,56z"/>
	<path class="st0" d="M61.3,59.4C61.3,59.4,61.3,59.4,61.3,59.4C61.3,59.5,61.3,59.5,61.3,59.4c-0.1,0.1-0.1,0.1-0.1,0.1
		c0,0-0.1,0-0.1,0c0,0-0.1,0-0.1,0c0,0-0.1,0-0.1,0c0,0,0,0,0,0c0,0,0,0,0,0v-4.3h0l-1.9,4.4c0,0,0,0,0,0s0,0,0,0c0,0,0,0-0.1,0
		c0,0-0.1,0-0.1,0c0,0-0.1,0-0.1,0c0,0,0,0-0.1,0c0,0,0,0,0,0s0,0,0,0l-1.8-4.4h0v4.3c0,0,0,0,0,0c0,0,0,0,0,0c0,0,0,0-0.1,0
		s-0.1,0-0.1,0c0,0-0.1,0-0.1,0c0,0-0.1,0-0.1,0c0,0,0,0,0,0c0,0,0,0,0,0v-4.5c0-0.1,0-0.2,0.1-0.2c0,0,0.1,0,0.1,0h0.2
		c0.1,0,0.1,0,0.2,0s0.1,0,0.1,0.1c0,0,0.1,0.1,0.1,0.1s0,0.1,0.1,0.1l1.6,3.8h0l1.7-3.8c0-0.1,0.1-0.1,0.1-0.2c0,0,0.1-0.1,0.1-0.1
		c0,0,0.1,0,0.1-0.1c0,0,0.1,0,0.1,0h0.3c0,0,0,0,0.1,0c0,0,0,0,0.1,0s0,0,0,0.1c0,0,0,0.1,0,0.1V59.4z"/>
	<path class="st0" d="M66.1,59.3C66.1,59.4,66.1,59.4,66.1,59.3c0,0.1,0,0.1,0,0.1c0,0,0,0-0.1,0c0,0-0.1,0-0.1,0s-0.1,0-0.1,0
		c0,0-0.1,0-0.1,0c0,0,0,0,0,0c0,0,0,0,0,0l-0.5-1.3h-2.1l-0.4,1.3c0,0,0,0,0,0s0,0,0,0s0,0-0.1,0s-0.1,0-0.1,0c-0.1,0-0.1,0-0.1,0
		c0,0-0.1,0-0.1,0c0,0,0,0,0-0.1s0-0.1,0-0.1l1.7-4.6c0,0,0,0,0,0c0,0,0,0,0.1,0c0,0,0.1,0,0.1,0c0,0,0.1,0,0.1,0c0,0,0.1,0,0.1,0
		c0,0,0.1,0,0.1,0c0,0,0,0,0.1,0s0,0,0,0L66.1,59.3z M64.1,55.2L64.1,55.2l-0.9,2.6h1.8L64.1,55.2z"/>
</g>
</svg>
