<svg width="71" height="51" viewBox="0 0 71 51" fill="none" xmlns="http://www.w3.org/2000/svg">
<path d="M0 23.7222L0.039507 23.4057C2.13577 23.5243 3.67823 23.6035 5.29981 23.6035C6.84238 23.6035 8.34523 23.5243 10.4415 23.4057V23.7222C9.334 24.1572 8.7408 24.6318 8.62208 25.0669C8.54307 25.502 8.46395 25.8579 8.46395 26.0952C8.46395 26.6094 8.58257 27.2422 8.85942 27.9541C9.8878 30.3272 10.837 32.542 11.7466 34.6383C13.3287 38.1979 14.9503 42.1924 15.7018 43.8931C17.6002 40.7291 20.0128 37.8419 22.3858 35.1523C21.318 32.6211 20.0523 29.6943 19.0636 27.3213C17.9166 24.8296 16.9674 24.0385 15.9786 23.7222V23.4057C18.0748 23.5243 19.6173 23.6035 21.1993 23.6035C22.6627 23.6035 24.1656 23.5243 26.1828 23.4057C26.5783 23.3662 26.9342 23.3662 27.2507 23.3662C29.3073 23.3662 30.3356 23.8803 30.3356 24.9878C30.3356 25.1064 30.2961 25.3438 30.217 25.7392C30.1775 26.1348 29.7819 26.8467 29.07 27.875C28.3186 28.9034 27.4089 30.0503 26.3014 31.3555C28.279 36.0621 28.6349 36.6553 31.4826 43.4186C32.155 41.7179 32.8669 39.9776 33.5393 38.1979C34.7654 35.1919 36.2287 31.4346 37.5339 28.1518C37.8108 27.4399 37.9294 26.8467 37.9294 26.2929C37.9294 25.8183 37.7712 25.3041 37.4152 24.7504C37.0593 24.2363 35.9915 23.8803 34.2512 23.6826V23.4057C35.5168 23.5243 36.6243 23.5639 37.6922 23.5639C38.9578 23.5639 40.1838 23.5243 41.4495 23.4057V23.6826C39.907 24.5922 38.9578 25.8579 38.1271 27.7959C36.3474 32.1069 34.2117 37.7232 32.3923 42.2716L29.2282 50.2608H28.9118C28.6745 49.7071 25.7477 43.0231 22.5837 35.5479C18.7867 39.9776 14.7525 45.0797 13.2496 50.2608H12.9332C12.6168 49.4699 7.19834 36.9321 3.08503 27.3213C1.93803 24.8296 1.06788 24.0385 0 23.7222ZM24.5216 25.1855C24.4425 25.4229 24.4425 25.6997 24.4425 25.9766C24.4425 26.2929 24.4821 26.9653 24.8381 27.9541C25.3126 29.1011 25.7477 30.0899 26.1037 30.9204C28.3186 28.3892 29.7028 26.4511 29.9005 25.1855C29.9005 25.1064 29.9005 25.0273 29.9005 24.9878C29.9005 23.8013 28.0812 23.7222 26.4596 23.8408C25.3126 23.9594 24.7193 24.4341 24.5216 25.1855Z" fill="white"/>
<path d="M58.1069 47.7883C58.1069 49.1536 57.0003 50.2603 55.635 50.2603C54.2698 50.2603 53.1631 49.1536 53.1631 47.7883C53.1631 46.4231 54.2698 45.3164 55.635 45.3164C57.0003 45.3164 58.1069 46.4231 58.1069 47.7883Z" fill="white"/>
<path fill-rule="evenodd" clip-rule="evenodd" d="M31.1915 34.8751C31.6546 34.7262 32.1363 34.5737 32.5803 34.437C32.2236 34.6708 31.8768 34.9129 31.5444 35.1691C32.1509 35.0539 32.7171 34.9771 33.2024 34.9771C34.6581 34.9771 35.9521 35.3995 36.8822 35.9756C39.0503 37.2258 40.44 39.7521 41.8897 42.3876C43.4683 45.2574 45.1182 48.2566 47.9219 49.8782V50.2623C47.113 50.2239 46.4661 50.2239 45.9404 50.2239H44.4037C43.9801 50.2239 43.5641 50.2312 43.0954 50.2394H43.0951C42.4901 50.2501 41.797 50.2623 40.8856 50.2623C40.0357 48.8499 39.1562 46.7542 38.2468 44.5877L38.2467 44.5876C36.5599 40.5687 34.7706 36.3056 32.8788 35.7068C32.5958 35.5916 32.2723 35.5532 31.9892 35.5532C31.4231 35.5532 30.8974 35.7836 30.3716 36.206C29.7707 36.7931 29.2572 37.4565 28.856 38.2459V37.4018C29.4821 36.4015 30.2906 35.5812 31.1915 34.8751Z" fill="white"/>
<path d="M36.2726 7.11961L34.2601 4.6969L33.8856 4.80612L33.7275 4.43126L35.0469 3.87494L35.2049 4.24979L34.8398 4.48027L35.9505 5.88572L36.2102 6.22127L36.2279 6.2138L36.1985 5.78115L36.0357 3.45795L36.5257 3.25133L38.0407 4.99739L38.3716 5.38629L38.3893 5.37881L38.3389 4.87159L38.1149 3.09572L37.6874 3.20303L37.5292 2.82807L38.8191 2.28418L38.9772 2.65903L38.6442 2.85859L38.9852 5.97575L38.4332 6.20854L36.9778 4.56251L36.6078 4.1137L36.5913 4.1241L36.6561 4.69821L36.7715 6.90925L36.2726 7.11961Z" fill="white"/>
<path d="M44.4546 5.00457L44.4521 4.60092L44.9737 4.50797L44.9579 2.0318L44.4351 1.94541L44.4326 1.53852L45.5858 1.53125L45.6047 4.50392L46.1275 4.59031L46.13 4.99386L44.4546 5.00457ZM44.9172 0.680195L44.913 0.00424286L45.576 0L45.5803 0.675953L44.9172 0.680195Z" fill="white"/>
<path d="M51.3032 5.77556L51.4553 5.40162L51.9727 5.51529L52.9057 3.22159L52.4559 2.94182L52.6092 2.56494L53.6151 2.97415L53.4623 3.46874C53.6383 3.34203 53.8254 3.26484 54.0234 3.23706C54.2243 3.20806 54.4276 3.23544 54.6333 3.3191C54.9794 3.45995 55.2061 3.67082 55.3131 3.95181C55.4209 4.23088 55.3887 4.58209 55.2165 5.00534L54.578 6.57509L55.0278 6.85487L54.8758 7.22881L53.3239 6.59752L53.476 6.22367L53.9935 6.33724L54.6271 4.77942C54.7422 4.49661 54.7675 4.27291 54.703 4.10831C54.6405 3.94453 54.4945 3.81601 54.2651 3.72265C54.097 3.65425 53.931 3.63404 53.7675 3.66203C53.6059 3.69082 53.458 3.75983 53.3237 3.86885L52.5573 5.75313L53.0071 6.03291L52.8551 6.40676L51.3032 5.77556Z" fill="white"/>
<path d="M58.0651 11.2144C58.0302 11.1798 57.9891 11.1303 57.9419 11.0656C57.8932 11.0025 57.8573 10.9522 57.8345 10.9146L58.2288 10.6062C58.2517 10.6348 58.2852 10.6723 58.3293 10.7189C58.3719 10.767 58.4015 10.7992 58.4182 10.8157C58.514 10.9102 58.6274 10.9502 58.7588 10.9359C58.8915 10.923 59.046 10.8789 59.2222 10.8037L59.586 10.6497L60.7768 7.69739L60.5484 7.39983L60.8342 7.11035L61.8691 8.13216L61.5832 8.42164L61.2397 8.17237L60.503 9.88044L60.302 10.3167L60.3156 10.3302L62.4204 9.33826L62.1509 8.982L62.4367 8.69252L63.4511 9.69413L63.1653 9.9836L62.8739 9.76798L59.4159 11.328C59.2533 11.4016 59.0935 11.4524 58.9366 11.4806C58.7798 11.5118 58.628 11.5075 58.4812 11.4677C58.336 11.4294 58.1973 11.3449 58.0651 11.2144Z" fill="white"/>
<path d="M63.4746 15.8225L63.8465 15.6657L64.1321 16.112L67.8245 14.5549L67.7043 14.0389L68.0792 13.8809L68.5273 14.9434L64.3772 16.6935L64.4974 17.2095L64.1256 17.3663L63.4746 15.8225ZM64.3396 17.8739L64.7115 17.7171L64.8868 18.0257L64.8949 18.0118L65.6978 16.5851L66.2881 16.6908L65.1969 18.6702L65.3202 19.1605L64.9483 19.3174L64.3396 17.8739ZM64.8291 16.4542L65.1958 16.0458L67.1621 16.8506L67.1861 16.8579L67.0801 16.4993L67.4549 16.3413L68.035 17.7167L67.6601 17.8748L67.4104 17.4969L64.8291 16.4542Z" fill="white"/>
<path d="M65.7393 23.2564L66.1429 23.2539L66.236 23.7755L70.2433 23.7499L70.3297 23.2272L70.7365 23.2246L70.7438 24.3779L68.7513 24.3905C68.9187 24.509 69.0488 24.6545 69.1418 24.8269C69.2347 24.9993 69.2818 25.1912 69.2831 25.4026C69.2855 25.7742 69.1763 26.0632 68.9555 26.2696C68.7348 26.4761 68.3937 26.5807 67.9324 26.5837L66.2539 26.5944L66.1675 27.1171L65.7639 27.1197L65.7532 25.4443L66.1569 25.4417L66.2498 25.9634L67.9348 25.9526C68.221 25.9508 68.432 25.8875 68.5679 25.7628C68.7037 25.6402 68.7709 25.4572 68.7694 25.2137C68.7683 25.0407 68.7257 24.883 68.6414 24.7404C68.5594 24.6 68.4476 24.4843 68.3061 24.3933L66.2399 24.4066L66.1536 24.9292L65.75 24.9318L65.7393 23.2564Z" fill="white"/>
<path d="M64.5654 32.231L64.9392 32.383L64.8256 32.9005L67.1192 33.8335L67.3991 33.3836L67.7759 33.537L67.3414 34.6052L64.5878 33.4851L64.3079 33.935L63.9341 33.7828L64.5654 32.231ZM68.3835 34.3132L69.0096 34.5679L68.7598 35.1821L68.1337 34.9274L68.3835 34.3132Z" fill="white"/>
<path d="M61.2322 38.2622L61.5195 38.5458L61.2164 38.9804L62.9785 40.7201L63.4091 40.4116L63.6987 40.6975L62.9356 41.4702L62.5372 41.1397C62.5869 41.3509 62.5867 41.5532 62.5365 41.7468C62.4864 41.9435 62.3834 42.1208 62.2273 42.2788C61.9648 42.5448 61.6832 42.6734 61.3826 42.6648C61.0835 42.6576 60.7714 42.4935 60.4461 42.1724L59.2403 40.9818L58.8096 41.2903L58.5225 41.0067L59.6996 39.8146L59.9867 40.0982L59.6837 40.5328L60.8804 41.7143C61.0978 41.9289 61.2948 42.0378 61.4715 42.0413C61.6467 42.0462 61.8213 41.9605 61.9954 41.7842C62.1229 41.6551 62.205 41.5096 62.2417 41.3477C62.277 41.1875 62.2699 41.0244 62.2205 40.8586L60.773 39.4294L60.3424 39.738L60.0551 39.4544L61.2322 38.2622Z" fill="white"/>
</svg>
