<svg width="12" height="15" viewBox="0 0 12 15" fill="none" xmlns="http://www.w3.org/2000/svg">
<g clip-path="url(#clip0_2552_4594)">
<g clip-path="url(#clip1_2552_4594)">
<path d="M6.125 0.390137H0.875C0.391836 0.390137 0 0.781973 0 1.26514V13.5151C0 13.9983 0.391836 14.3901 0.875 14.3901H6.125C6.60816 14.3901 7 13.9983 7 13.5151V1.26514C7 0.781973 6.60816 0.390137 6.125 0.390137ZM1.3125 13.0776V1.70264H5.6875V3.01514H4.15625C4.03539 3.01514 3.9375 3.11303 3.9375 3.23389V3.67139C3.9375 3.79225 4.03539 3.89014 4.15625 3.89014H5.6875V5.64014H4.15625C4.03539 5.64014 3.9375 5.73803 3.9375 5.85889V6.29639C3.9375 6.41725 4.03539 6.51514 4.15625 6.51514H5.6875V8.26514H4.15625C4.03539 8.26514 3.9375 8.36303 3.9375 8.48389V8.92139C3.9375 9.04225 4.03539 9.14014 4.15625 9.14014H5.6875V10.8901H4.15625C4.03539 10.8901 3.9375 10.988 3.9375 11.1089V11.5464C3.9375 11.6672 4.03539 11.7651 4.15625 11.7651H5.6875V13.0776H1.3125Z" fill="#111111"/>
</g>
</g>
<defs>
<clipPath id="clip0_2552_4594">
<rect width="12" height="14" fill="white" transform="translate(0 0.390137)"/>
</clipPath>
<clipPath id="clip1_2552_4594">
<rect width="7" height="14" fill="white" transform="translate(0 0.390137)"/>
</clipPath>
</defs>
</svg>
