<svg width="23" height="40" viewBox="0 0 23 40" fill="none" xmlns="http://www.w3.org/2000/svg">
<g clip-path="url(#clip0_3061_3903)">
<path d="M22.0013 29.7565C22.1023 29.8575 22.1528 29.9801 22.1528 30.1243C22.1528 30.2685 22.1023 30.3911 22.0013 30.4921L21.5687 30.9247C21.4677 31.0257 21.3451 31.0762 21.2009 31.0762C21.0567 31.0762 20.9341 31.0257 20.8331 30.9247L15.2517 25.3433C15.2084 25.3 15.1723 25.2459 15.1435 25.181C15.1147 25.1161 15.1002 25.0476 15.1002 24.9755V24.5428C14.307 25.2784 13.3876 25.8589 12.342 26.2843C11.2963 26.7098 10.1822 26.9225 8.99957 26.9225C7.75924 26.9225 6.59103 26.6846 5.49493 26.2086C4.39883 25.7471 3.44334 25.1089 2.62848 24.294C1.81361 23.4792 1.17542 22.5237 0.713908 21.4276C0.237969 20.3315 0 19.1633 0 17.923C0 16.6826 0.237969 15.5144 0.713908 14.4183C1.17542 13.3222 1.81361 12.3667 2.62848 11.5519C3.44334 10.737 4.39883 10.0988 5.49493 9.6373C6.59103 9.16136 7.75924 8.92339 8.99957 8.92339C10.2399 8.92339 11.4081 9.16136 12.5042 9.6373C13.6003 10.0988 14.5558 10.737 15.3707 11.5519C16.1855 12.3667 16.8237 13.3222 17.2852 14.4183C17.7612 15.5144 17.9991 16.6826 17.9991 17.923C17.9991 19.1056 17.7864 20.2197 17.3609 21.2653C16.9355 22.311 16.3478 23.2304 15.5978 24.0236H16.0521C16.1242 24.0236 16.1927 24.038 16.2576 24.0669C16.3225 24.0957 16.3766 24.1318 16.4199 24.1751L22.0013 29.7565ZM8.99957 25.538C10.0524 25.538 11.0403 25.3361 11.9634 24.9322C12.8864 24.5428 13.6941 24.002 14.3863 23.3097C15.0786 22.6174 15.6194 21.8098 16.0088 20.8868C16.4127 19.9637 16.6146 18.9758 16.6146 17.923C16.6146 16.8701 16.4127 15.8822 16.0088 14.9592C15.6194 14.0361 15.0786 13.2285 14.3863 12.5362C13.6941 11.8439 12.8864 11.3031 11.9634 10.9137C11.0403 10.5099 10.0524 10.3079 8.99957 10.3079C7.94673 10.3079 6.9588 10.5099 6.03577 10.9137C5.11273 11.3031 4.30508 11.8439 3.61281 12.5362C2.92053 13.2285 2.37969 14.0361 1.99029 14.9592C1.58646 15.8822 1.38455 16.8701 1.38455 17.923C1.38455 18.9758 1.58646 19.9637 1.99029 20.8868C2.37969 21.8098 2.92053 22.6174 3.61281 23.3097C4.30508 24.002 5.11273 24.5428 6.03577 24.9322C6.9588 25.3361 7.94673 25.538 8.99957 25.538Z" fill="white"/>
</g>
<defs>
<clipPath id="clip0_3061_3903">
<rect width="22.33" height="40" fill="white" transform="matrix(1 0 0 -1 0 40)"/>
</clipPath>
</defs>
</svg>
