<svg width="85" height="20" viewBox="0 0 85 20" fill="none" xmlns="http://www.w3.org/2000/svg">
<g clip-path="url(#clip0_2555_4922)">
<path fill-rule="evenodd" clip-rule="evenodd" d="M56.7326 0.160156C55.0465 0.160156 53.6797 1.50636 53.6797 3.16723V16.8433C53.6797 18.504 55.0465 19.8502 56.7326 19.8502H81.6116C83.2977 19.8502 84.6645 18.504 84.6645 16.8433V3.16723C84.6645 1.50661 83.2977 0.160156 81.6116 0.160156L56.7326 0.160156ZM61.0905 13.9106V10.4442H63.3046C65.3275 10.4442 66.4031 9.32676 66.4031 7.63392C66.4031 5.94107 65.3275 4.92773 63.3046 4.92773H59.6641V13.9106H61.0905ZM61.0905 6.26336H62.9772C64.2866 6.26336 64.9299 6.79328 64.9299 7.67992C64.9299 8.56657 64.31 9.09649 63.0356 9.09649H61.0905V6.26336ZM68.9181 14.0948C70.0054 14.0948 70.7186 13.6225 71.046 12.8165C71.1396 13.7145 71.6893 14.1753 72.8818 13.8646L72.8936 12.9085C72.4141 12.9545 72.3205 12.7818 72.3205 12.2866V9.93713C72.3205 8.55525 71.3968 7.73774 69.6898 7.73774C68.0059 7.73774 67.0355 8.56682 67.0355 9.97157H68.3452C68.3452 9.30388 68.8245 8.90066 69.6664 8.90066C70.5549 8.90066 70.9643 9.28076 70.9525 9.93738V10.2368L69.4441 10.3979C67.7487 10.5822 66.8134 11.2157 66.8134 12.3213C66.8134 13.2311 67.468 14.0948 68.9181 14.0948ZM69.2103 13.0584C68.4737 13.0584 68.1815 12.6667 68.1815 12.275C68.1815 11.7454 68.7895 11.5035 69.982 11.3653L70.9175 11.2617C70.8589 12.2753 70.1691 13.0584 69.2103 13.0584ZM77.2247 14.3598C76.6284 15.7877 75.6696 16.2138 74.173 16.2138H73.5298V15.0393H74.2198C75.0381 15.0393 75.4357 14.7859 75.8685 14.0604L73.2142 7.92225H74.6873L76.5817 12.4022L78.2653 7.92225H79.7035L77.2247 14.3598Z" fill="white"/>
<path d="M8.04212 8.81507C6.08892 8.39758 5.21867 8.23447 5.21867 7.49297C5.21867 6.79576 5.80753 6.44838 6.98526 6.44838C8.02095 6.44838 8.7782 6.89441 9.33531 7.76777C9.3774 7.83518 9.46431 7.85855 9.53521 7.82239L11.7329 6.72835C11.7515 6.71907 11.768 6.70607 11.7814 6.69014C11.7948 6.67421 11.8047 6.6557 11.8106 6.63576C11.8165 6.61582 11.8183 6.59488 11.8157 6.57424C11.8132 6.5536 11.8064 6.53371 11.7959 6.51579C10.8838 4.95801 9.19868 4.10531 6.98009 4.10531C4.06457 4.10531 2.25342 5.5204 2.25342 7.77048C2.25342 10.1603 4.4592 10.7643 6.41486 11.1815C8.37052 11.599 9.24348 11.7621 9.24348 12.5036C9.24348 13.2451 8.60735 13.5947 7.33755 13.5947C6.16499 13.5947 5.29498 13.0658 4.76914 12.0396C4.75041 12.0033 4.71811 11.9759 4.67925 11.9633C4.64039 11.9506 4.59811 11.9539 4.56161 11.9722L2.36912 13.0426C2.3509 13.0516 2.33464 13.0642 2.32131 13.0795C2.30798 13.0949 2.29783 13.1127 2.29147 13.132C2.2851 13.1513 2.28263 13.1717 2.28421 13.1919C2.2858 13.2122 2.2914 13.2319 2.30068 13.25C3.17093 14.9736 4.95575 15.9432 7.34001 15.9432C10.3764 15.9432 12.2112 14.5512 12.2112 12.2313C12.2112 9.91132 9.99532 9.23748 8.04212 8.82023V8.81507ZM19.8192 4.10531C18.573 4.10531 17.4716 4.54076 16.6804 5.31572C16.6304 5.36246 16.5489 5.32875 16.5489 5.26135V0.313199C16.549 0.292918 16.545 0.272828 16.5372 0.254102C16.5294 0.235377 16.5179 0.218393 16.5035 0.204145C16.4891 0.189896 16.4719 0.178668 16.4531 0.171119C16.4343 0.163569 16.4141 0.159849 16.3938 0.160176H13.644C13.6237 0.159849 13.6035 0.163569 13.5847 0.171119C13.5659 0.178668 13.5487 0.189896 13.5343 0.204145C13.5198 0.218393 13.5084 0.235377 13.5006 0.254102C13.4928 0.272828 13.4888 0.292918 13.4889 0.313199V15.6711C13.4888 15.6913 13.4928 15.7114 13.5007 15.7301C13.5085 15.7488 13.5199 15.7658 13.5344 15.78C13.5488 15.7942 13.5659 15.8054 13.5847 15.8129C13.6036 15.8205 13.6237 15.8242 13.644 15.8239H16.3938C16.4141 15.8242 16.4342 15.8205 16.453 15.8129C16.4719 15.8054 16.489 15.7942 16.5034 15.78C16.5179 15.7658 16.5293 15.7488 16.5371 15.7301C16.5449 15.7114 16.5489 15.6913 16.5489 15.6711V8.93414C16.5489 7.63295 17.5607 6.63511 18.9253 6.63511C20.2896 6.63511 21.278 7.61229 21.278 8.93414V15.6711C21.278 15.6913 21.282 15.7114 21.2898 15.7301C21.2976 15.7488 21.3091 15.7658 21.3235 15.78C21.338 15.7942 21.3551 15.8054 21.3739 15.8129C21.3927 15.8205 21.4129 15.8242 21.4331 15.8239H24.183C24.2032 15.8242 24.2234 15.8205 24.2422 15.8129C24.261 15.8054 24.2781 15.7942 24.2926 15.78C24.307 15.7658 24.3185 15.7488 24.3263 15.7301C24.3341 15.7114 24.3381 15.6913 24.3381 15.6711V8.93414C24.3381 6.10371 22.4558 4.10777 19.8192 4.10777V4.10531ZM29.9215 3.66715C28.4284 3.66715 27.0246 4.11564 26.0202 4.76611C25.9871 4.7873 25.9635 4.82043 25.9542 4.85861C25.945 4.89678 25.9508 4.93706 25.9705 4.97105L27.1822 7.01102C27.227 7.0836 27.3215 7.10943 27.3951 7.06515C28.1591 6.61127 29.0327 6.37477 29.9215 6.38122C32.3215 6.38122 34.0854 8.05044 34.0854 10.256C34.0854 12.1356 32.6738 13.5273 30.8835 13.5273C29.4247 13.5273 28.4126 12.6901 28.4126 11.5082C28.4126 10.8317 28.7043 10.2769 29.4641 9.88549C29.4827 9.87624 29.4992 9.8632 29.5125 9.84721C29.5259 9.83121 29.5357 9.81261 29.5414 9.7926C29.5471 9.77258 29.5485 9.7516 29.5457 9.73099C29.5428 9.71038 29.5356 9.69061 29.5246 9.67293L28.3811 7.76531C28.3624 7.73444 28.3335 7.71106 28.2994 7.6992C28.2653 7.68734 28.2281 7.68775 28.1943 7.70036C26.6618 8.2603 25.5865 9.60823 25.5865 11.4174C25.5865 14.1546 27.7974 16.1971 30.8811 16.1971C34.4825 16.1971 37.0718 13.7374 37.0718 10.2095C37.0718 6.42771 34.0593 3.66469 29.9163 3.66469L29.9215 3.66715ZM45.113 4.08465C43.7224 4.08465 42.4816 4.58996 41.5747 5.48153C41.5639 5.49225 41.5502 5.49956 41.5353 5.50252C41.5204 5.50549 41.505 5.50399 41.4909 5.4982C41.4769 5.49242 41.4648 5.48261 41.4564 5.47001C41.4479 5.45742 41.4433 5.44259 41.4432 5.42741V4.35403C41.4433 4.33377 41.4393 4.31371 41.4314 4.29501C41.4236 4.27632 41.4122 4.25936 41.3977 4.24514C41.3833 4.23092 41.3662 4.21971 41.3474 4.21218C41.3285 4.20464 41.3084 4.20093 41.2881 4.20126H38.6094C38.5892 4.20093 38.569 4.20464 38.5502 4.21218C38.5314 4.21971 38.5143 4.23092 38.4998 4.24514C38.4854 4.25936 38.4739 4.27632 38.4661 4.29501C38.4583 4.31371 38.4543 4.33377 38.4543 4.35403V19.6885C38.4543 19.7088 38.4582 19.7289 38.466 19.7476C38.4738 19.7664 38.4853 19.7833 38.4997 19.7976C38.5142 19.8118 38.5313 19.8231 38.5502 19.8306C38.569 19.8382 38.5891 19.8419 38.6094 19.8416H41.359C41.3793 19.8419 41.3995 19.8382 41.4184 19.8307C41.4372 19.8232 41.4544 19.8119 41.4689 19.7977C41.4834 19.7834 41.4948 19.7664 41.5026 19.7477C41.5104 19.729 41.5144 19.7088 41.5144 19.6885V14.6599C41.5144 14.5925 41.5959 14.5591 41.6456 14.6031C42.5501 15.4324 43.746 15.9173 45.1157 15.9173C48.3412 15.9173 50.8569 13.3433 50.8569 9.99964C50.8569 6.65577 48.3385 4.08194 45.1157 4.08194L45.113 4.08465ZM44.5953 13.3201C42.7603 13.3201 41.3696 11.8814 41.3696 9.97873C41.3696 8.07628 42.7576 6.63781 44.5953 6.63781C46.4331 6.63781 47.8181 8.05291 47.8181 9.97873C47.8181 11.9046 46.451 13.3199 44.5926 13.3199L44.5953 13.3201Z" fill="white"/>
</g>
<defs>
<clipPath id="clip0_2555_4922">
<rect width="84" height="19.69" fill="white" transform="translate(0.75 0.160156)"/>
</clipPath>
</defs>
</svg>
