<svg width="20" height="22" viewBox="0 0 20 22" fill="none" xmlns="http://www.w3.org/2000/svg">
<g clip-path="url(#clip0_3061_3910)">
<path d="M15.3701 5.5H19.4951V18.5625C19.4951 19.5078 19.1585 20.3171 18.4854 20.9902C17.8122 21.6634 17.0029 22 16.0576 22H3.68262C2.7373 22 1.92806 21.6634 1.25488 20.9902C0.581706 20.3171 0.245117 19.5078 0.245117 18.5625V5.5H4.37012C4.37012 4.74088 4.51335 4.02474 4.7998 3.35156C5.08626 2.69271 5.48014 2.11263 5.98145 1.61133C6.48275 1.11003 7.06283 0.716146 7.72168 0.429688C8.39486 0.143229 9.111 0 9.87012 0C10.6292 0 11.3454 0.143229 12.0186 0.429688C12.6774 0.716146 13.2575 1.11003 13.7588 1.61133C14.2601 2.11263 14.654 2.69271 14.9404 3.35156C15.2269 4.02474 15.3701 4.74088 15.3701 5.5ZM9.87012 1.375C8.73861 1.375 7.76823 1.77962 6.95898 2.58887C6.14974 3.39811 5.74512 4.36849 5.74512 5.5H13.9951C13.9951 4.36849 13.5905 3.39811 12.7812 2.58887C11.972 1.77962 11.0016 1.375 9.87012 1.375ZM18.1201 18.5625V6.875H15.3701V8.9375C15.3701 9.1237 15.3021 9.28483 15.166 9.4209C15.0299 9.55697 14.8688 9.625 14.6826 9.625C14.4964 9.625 14.3353 9.55697 14.1992 9.4209C14.0632 9.28483 13.9951 9.1237 13.9951 8.9375V6.875H5.74512V8.9375C5.74512 9.1237 5.67708 9.28483 5.54102 9.4209C5.40495 9.55697 5.24381 9.625 5.05762 9.625C4.87142 9.625 4.71029 9.55697 4.57422 9.4209C4.43815 9.28483 4.37012 9.1237 4.37012 8.9375V6.875H1.62012V18.5625C1.62012 19.1354 1.82064 19.6224 2.22168 20.0234C2.62272 20.4245 3.1097 20.625 3.68262 20.625H16.0576C16.6305 20.625 17.1175 20.4245 17.5186 20.0234C17.9196 19.6224 18.1201 19.1354 18.1201 18.5625Z" fill="white"/>
</g>
<path d="M12.6709 12.9023V14.2559C12.6709 14.8431 12.6082 15.3498 12.4829 15.7759C12.3576 16.1984 12.1768 16.5457 11.9404 16.8179C11.7077 17.0864 11.4302 17.2852 11.1079 17.4141C10.7856 17.543 10.4276 17.6074 10.0337 17.6074C9.71859 17.6074 9.42497 17.568 9.15283 17.4893C8.8807 17.4069 8.63542 17.2798 8.41699 17.1079C8.20215 16.936 8.01595 16.7194 7.8584 16.458C7.70443 16.193 7.58626 15.8779 7.50391 15.5127C7.42155 15.1475 7.38037 14.7285 7.38037 14.2559V12.9023C7.38037 12.3151 7.44303 11.812 7.56836 11.3931C7.69727 10.9705 7.87809 10.625 8.11084 10.3564C8.34717 10.0879 8.62646 9.89095 8.94873 9.76562C9.271 9.63672 9.62907 9.57227 10.0229 9.57227C10.3381 9.57227 10.6299 9.61344 10.8984 9.6958C11.1706 9.77458 11.4159 9.89811 11.6343 10.0664C11.8527 10.2347 12.0389 10.4513 12.1929 10.7163C12.3468 10.9777 12.465 11.291 12.5474 11.6562C12.6297 12.0179 12.6709 12.4333 12.6709 12.9023ZM11.1187 14.46V12.6929C11.1187 12.41 11.1025 12.1629 11.0703 11.9517C11.0417 11.7404 10.9969 11.5614 10.936 11.4146C10.8752 11.2642 10.8 11.1424 10.7104 11.0493C10.6209 10.9562 10.5189 10.8882 10.4043 10.8452C10.2897 10.8022 10.1626 10.7808 10.0229 10.7808C9.84749 10.7808 9.69173 10.8148 9.55566 10.8828C9.42318 10.9508 9.31038 11.0601 9.21729 11.2104C9.12419 11.3573 9.05257 11.5542 9.00244 11.8013C8.95589 12.0448 8.93262 12.342 8.93262 12.6929V14.46C8.93262 14.7428 8.94694 14.9917 8.97559 15.2065C9.00781 15.4214 9.05436 15.6058 9.11523 15.7598C9.17969 15.9102 9.25488 16.0337 9.34082 16.1304C9.43034 16.2235 9.53239 16.2915 9.64697 16.3345C9.76514 16.3774 9.89404 16.3989 10.0337 16.3989C10.2056 16.3989 10.3577 16.3649 10.4902 16.2969C10.6263 16.2253 10.7409 16.1143 10.834 15.9639C10.9307 15.8099 11.0023 15.6094 11.0488 15.3623C11.0954 15.1152 11.1187 14.8145 11.1187 14.46Z" fill="white"/>
<defs>
<clipPath id="clip0_3061_3910">
<rect width="19.58" height="22" fill="white" transform="matrix(1 0 0 -1 0.240234 22)"/>
</clipPath>
</defs>
</svg>
