<svg width="21" height="22" viewBox="0 0 21 22" fill="none" xmlns="http://www.w3.org/2000/svg">
<g clip-path="url(#clip0_3061_3907)">
<path d="M14.1357 12.375C14.9378 12.375 15.6898 12.5254 16.3916 12.8262C17.0934 13.127 17.7057 13.5387 18.2285 14.0615C18.7513 14.5843 19.1631 15.1966 19.4639 15.8984C19.7646 16.6003 19.915 17.3522 19.915 18.1543V19.9375C19.915 20.5104 19.7145 20.9974 19.3135 21.3984C18.9124 21.7995 18.4255 22 17.8525 22H2.72754C2.15462 22 1.66764 21.7995 1.2666 21.3984C0.86556 20.9974 0.665039 20.5104 0.665039 19.9375V18.1543C0.665039 17.3522 0.81543 16.6003 1.11621 15.8984C1.41699 15.1966 1.82878 14.5843 2.35156 14.0615C2.87435 13.5387 3.48665 13.127 4.18848 12.8262C4.8903 12.5254 5.64225 12.375 6.44434 12.375C7.06022 12.375 7.60091 12.4896 8.06641 12.7188C8.5319 12.9479 9.27311 13.0625 10.29 13.0625C11.307 13.0625 12.0482 12.9479 12.5137 12.7188C12.9792 12.4896 13.5199 12.375 14.1357 12.375ZM18.54 19.9375V18.1543C18.54 17.5384 18.4255 16.9655 18.1963 16.4355C17.9671 15.9056 17.652 15.4401 17.251 15.0391C16.8499 14.638 16.3844 14.3229 15.8545 14.0938C15.3245 13.8646 14.7516 13.75 14.1357 13.75C13.7204 13.75 13.2477 13.8646 12.7178 14.0938C12.1878 14.3229 11.3786 14.4375 10.29 14.4375C9.2015 14.4375 8.39225 14.3229 7.8623 14.0938C7.33236 13.8646 6.8597 13.75 6.44434 13.75C5.82845 13.75 5.25553 13.8646 4.72559 14.0938C4.19564 14.3229 3.73014 14.638 3.3291 15.0391C2.92806 15.4401 2.61296 15.9056 2.38379 16.4355C2.15462 16.9655 2.04004 17.5384 2.04004 18.1543V19.9375C2.04004 20.1237 2.10807 20.2848 2.24414 20.4209C2.38021 20.557 2.54134 20.625 2.72754 20.625H17.8525C18.0387 20.625 18.1999 20.557 18.3359 20.4209C18.472 20.2848 18.54 20.1237 18.54 19.9375ZM10.29 11C9.53092 11 8.81478 10.8568 8.1416 10.5703C7.48275 10.2839 6.90267 9.88997 6.40137 9.38867C5.90006 8.88737 5.50619 8.30729 5.21973 7.64844C4.93327 6.97526 4.79004 6.25911 4.79004 5.5C4.79004 4.74088 4.93327 4.02474 5.21973 3.35156C5.50619 2.69271 5.90006 2.11263 6.40137 1.61133C6.90267 1.11003 7.48275 0.716146 8.1416 0.429688C8.81478 0.143229 9.53092 0 10.29 0C11.0492 0 11.7653 0.143229 12.4385 0.429688C13.0973 0.716146 13.6774 1.11003 14.1787 1.61133C14.68 2.11263 15.0739 2.69271 15.3604 3.35156C15.6468 4.02474 15.79 4.74088 15.79 5.5C15.79 6.25911 15.6468 6.97526 15.3604 7.64844C15.0739 8.30729 14.68 8.88737 14.1787 9.38867C13.6774 9.88997 13.0973 10.2839 12.4385 10.5703C11.7653 10.8568 11.0492 11 10.29 11ZM10.29 1.375C9.15853 1.375 8.18815 1.77962 7.37891 2.58887C6.56966 3.39811 6.16504 4.36849 6.16504 5.5C6.16504 6.63151 6.56966 7.60189 7.37891 8.41113C8.18815 9.22038 9.15853 9.625 10.29 9.625C11.4215 9.625 12.3919 9.22038 13.2012 8.41113C14.0104 7.60189 14.415 6.63151 14.415 5.5C14.415 4.36849 14.0104 3.39811 13.2012 2.58887C12.3919 1.77962 11.4215 1.375 10.29 1.375Z" fill="white"/>
</g>
<defs>
<clipPath id="clip0_3061_3907">
<rect width="19.58" height="22" fill="white" transform="matrix(1 0 0 -1 0.660156 22)"/>
</clipPath>
</defs>
</svg>
